<?xml version="1.0" standalone="no"?>
<!DOCTYPE svg PUBLIC "-//W3C//DTD SVG 20010904//EN"
 "http://www.w3.org/TR/2001/REC-SVG-20010904/DTD/svg10.dtd">
<svg version="1.0" xmlns="http://www.w3.org/2000/svg"
 width="684.000000pt" height="684.000000pt" viewBox="0 0 684.000000 684.000000"
 preserveAspectRatio="xMidYMid meet">
<metadata>
Created by potrace 1.14, written by Peter Selinger 2001-2017
</metadata>
<g transform="translate(0.000000,684.000000) scale(0.100000,-0.100000)"
fill="#000000" stroke="none">
<path d="M5019 6113 c-187 -46 -337 -187 -395 -370 -23 -73 -25 -206 -5 -283
47 -177 175 -315 350 -376 277 -96 594 70 681 355 23 75 25 210 5 285 -50 190
-218 353 -397 386 -87 16 -182 18 -239 3z"/>
<path d="M3437 5724 c-1 -1 -184 -5 -407 -8 -223 -4 -433 -9 -467 -12 -250
-18 -487 -213 -569 -469 -50 -156 -38 -316 36 -490 38 -90 383 -999 395 -1043
6 -21 4 -23 -16 -17 -12 4 -57 28 -98 52 -203 120 -377 183 -576 209 -84 10
-305 12 -395 3 -246 -26 -512 -138 -724 -303 -302 -236 -514 -612 -552 -981
-48 -466 100 -890 421 -1210 212 -212 451 -342 746 -406 84 -18 136 -23 269
-23 191 -1 254 5 376 35 332 81 625 277 836 558 40 53 91 112 113 131 88 76
123 119 138 166 9 27 37 184 62 349 55 361 64 412 79 423 6 5 42 12 80 15 57
5 79 13 122 42 31 20 63 52 78 77 13 24 124 336 246 693 236 690 247 734 221
831 -16 59 -44 90 -138 150 -45 30 -84 54 -86 54 -6 0 -332 186 -356 202 -12
8 -18 18 -15 21 4 3 157 6 340 7 l334 0 1 -32 c1 -18 3 -51 4 -73 1 -22 5
-195 9 -385 4 -190 11 -361 17 -381 10 -40 49 -93 95 -132 63 -52 131 -61 589
-73 531 -14 585 -11 644 33 20 15 44 36 54 47 59 66 83 190 53 269 -28 75
-122 155 -201 171 -16 3 -104 8 -195 11 -403 13 -496 17 -504 25 -5 5 -11 98
-12 207 -12 745 -14 789 -29 852 -46 190 -221 357 -410 392 -45 9 -600 20
-608 13z m-387 -1470 c198 -111 211 -121 203 -153 -14 -57 -116 -368 -130
-394 -11 -23 -17 -26 -28 -17 -12 10 -192 545 -208 618 -8 36 19 28 163 -54z
m-1305 -588 c165 -33 311 -91 439 -175 131 -85 327 -294 385 -410 22 -43 19
-78 -34 -431 -7 -51 -44 -299 -51 -340 -44 -293 -45 -351 -5 -436 l31 -66 -19
-32 c-24 -38 -178 -191 -246 -244 -112 -87 -283 -167 -442 -208 -108 -27 -297
-37 -432 -23 -224 24 -482 147 -662 317 -187 176 -336 451 -368 682 -5 36 -7
139 -6 230 3 130 8 182 24 243 110 405 395 716 776 847 70 25 178 51 255 63
54 9 279 -2 355 -17z"/>
<path d="M5764 3815 c-66 -28 -95 -103 -65 -170 16 -37 31 -50 97 -87 289
-161 451 -320 567 -553 86 -174 118 -322 116 -532 -3 -320 -105 -571 -327
-804 -141 -149 -281 -243 -460 -308 -140 -52 -204 -63 -372 -66 -192 -3 -269
6 -388 45 -496 164 -827 591 -848 1095 -11 259 52 484 205 734 28 46 51 91 52
100 5 67 -20 114 -76 141 -80 38 -147 -1 -232 -138 -72 -115 -141 -280 -179
-430 -33 -130 -35 -146 -36 -312 -1 -185 5 -267 28 -366 61 -268 206 -527 406
-723 200 -196 461 -335 750 -398 65 -14 126 -18 278 -17 284 0 415 30 655 149
243 120 438 294 588 526 155 238 230 495 230 789 0 236 -43 422 -143 625 -128
260 -319 466 -570 616 -137 82 -221 107 -276 84z"/>
</g>
</svg>
